<svg xmlns="http://www.w3.org/2000/svg" xmlns:xlink="http://www.w3.org/1999/xlink" width="266" zoomAndPan="magnify" viewBox="0 0 199.5 58.499998" height="78" preserveAspectRatio="xMidYMid meet" version="1.0"><defs><g/></defs><g fill="#176b87" fill-opacity="1"><g transform="translate(1.958512, 45.227486)"><g><path d="M 2.765625 -5.417969 C 2.308594 -5.417969 1.988281 -5.121094 1.988281 -4.664062 L 1.988281 -0.0703125 C 1.988281 0.503906 2.308594 0.777344 2.765625 0.777344 C 10.082031 0.664062 14.90625 -4 14.90625 -9.921875 C 14.90625 -16.253906 9.257812 -19.59375 9.257812 -23.042969 C 9.257812 -26.015625 11.453125 -28.117188 14.835938 -28.554688 C 15.292969 -28.554688 15.613281 -28.851562 15.613281 -29.308594 L 15.613281 -33.925781 C 15.613281 -34.496094 15.363281 -34.792969 14.835938 -34.792969 C 7.519531 -34.679688 2.628906 -29.972656 2.628906 -24.003906 C 2.628906 -17.855469 8.253906 -14.609375 8.253906 -10.882812 C 8.253906 -8.023438 6.148438 -5.851562 2.765625 -5.417969 Z M 16.644531 -5.417969 C 16.1875 -5.417969 15.867188 -5.121094 15.867188 -4.664062 L 15.867188 -0.0703125 C 15.867188 0.503906 16.1875 0.777344 16.644531 0.777344 C 23.957031 0.664062 28.78125 -4 28.78125 -9.921875 C 28.78125 -16.253906 23.136719 -19.59375 23.136719 -23.042969 C 23.136719 -26.015625 25.328125 -28.117188 28.714844 -28.554688 C 29.171875 -28.554688 29.492188 -28.851562 29.492188 -29.308594 L 29.492188 -33.925781 C 29.492188 -34.496094 29.238281 -34.792969 28.714844 -34.792969 C 21.398438 -34.679688 16.503906 -29.972656 16.503906 -24.003906 C 16.503906 -17.855469 22.128906 -14.609375 22.128906 -10.882812 C 22.128906 -8.023438 20.027344 -5.851562 16.644531 -5.417969 Z M 16.644531 -5.417969 "/></g></g></g><g fill="#001c30" fill-opacity="1"><g transform="translate(32.10498, 45.227486)"><g><path d="M 29.925781 -31.273438 C 26.929688 -33.355469 23.617188 -34.40625 19.890625 -34.40625 C 10.21875 -34.40625 2.421875 -26.566406 2.421875 -16.917969 C 2.421875 -7.269531 10.171875 0.503906 19.867188 0.503906 C 23.730469 0.503906 27.042969 -0.640625 29.902344 -2.628906 C 30.246094 -2.878906 30.496094 -3.0625 30.496094 -3.429688 C 30.496094 -3.542969 30.449219 -3.703125 30.382812 -3.910156 C 29.535156 -5.167969 27.753906 -8.230469 27.136719 -8.230469 C 26.929688 -8.230469 26.519531 -7.976562 26.085938 -7.703125 C 24.1875 -6.425781 22.039062 -5.714844 19.730469 -5.714844 C 13.625 -5.714844 8.734375 -10.5625 8.734375 -16.894531 C 8.734375 -23.042969 13.511719 -28.210938 20.09375 -28.210938 C 22.472656 -28.117188 24.734375 -27.386719 26.542969 -26.039062 C 26.792969 -25.855469 27 -25.765625 27.160156 -25.765625 C 27.363281 -25.765625 27.523438 -25.945312 27.777344 -26.222656 L 30.359375 -30.015625 C 30.429688 -30.175781 30.449219 -30.3125 30.449219 -30.429688 C 30.449219 -30.769531 30.269531 -31.046875 29.925781 -31.273438 Z M 20.210938 -21.328125 C 17.761719 -21.328125 15.796875 -19.339844 15.796875 -16.894531 C 15.796875 -14.515625 17.761719 -12.550781 20.210938 -12.550781 C 22.65625 -12.550781 24.621094 -14.425781 24.621094 -16.894531 C 24.621094 -19.339844 22.65625 -21.328125 20.210938 -21.328125 Z M 20.210938 -21.328125 "/></g></g></g><g fill="#001c30" fill-opacity="1"><g transform="translate(64.932266, 45.227486)"><g><path d="M 9.601562 -11.203125 L 9.601562 -27.226562 C 9.601562 -27.84375 9.191406 -28.140625 8.710938 -28.140625 L 4.503906 -28.140625 C 3.886719 -28.140625 3.542969 -27.753906 3.542969 -27.226562 L 3.542969 -6.605469 C 3.542969 -6.011719 3.839844 -5.714844 4.457031 -5.714844 L 19.179688 -5.714844 C 19.730469 -5.714844 20.070312 -6.082031 20.070312 -6.605469 L 20.070312 -10.21875 C 20.070312 -10.835938 19.660156 -11.203125 19.179688 -11.203125 Z M 9.601562 -11.203125 "/></g></g></g><g fill="#001c30" fill-opacity="1"><g transform="translate(85.895087, 45.227486)"><g><path d="M 1.921875 -16.871094 C 1.921875 -10.378906 7.179688 -5.234375 13.761719 -5.234375 C 20.324219 -5.234375 25.605469 -10.378906 25.605469 -16.871094 C 25.605469 -23.363281 20.324219 -28.621094 13.761719 -28.621094 C 7.179688 -28.621094 1.921875 -23.363281 1.921875 -16.871094 Z M 7.839844 -16.847656 C 7.839844 -20.210938 10.402344 -23.019531 13.785156 -23.019531 C 17.167969 -23.019531 19.75 -20.210938 19.75 -16.847656 C 19.75 -13.441406 17.167969 -10.699219 13.785156 -10.699219 C 10.402344 -10.699219 7.839844 -13.441406 7.839844 -16.847656 Z M 13.832031 -19.59375 C 12.320312 -19.59375 11.109375 -18.378906 11.109375 -16.871094 C 11.109375 -15.410156 12.320312 -14.195312 13.832031 -14.195312 C 15.339844 -14.195312 16.550781 -15.339844 16.550781 -16.871094 C 16.550781 -18.378906 15.339844 -19.59375 13.832031 -19.59375 Z M 13.832031 -19.59375 "/></g></g></g><g fill="#001c30" fill-opacity="1"><g transform="translate(113.601683, 45.227486)"><g><path d="M 0.9375 -23.5 C 0.9375 -22.882812 1.234375 -22.5625 1.761719 -22.5625 L 6.996094 -22.5625 L 6.996094 -18.152344 L 3.953125 -18.152344 C 3.429688 -18.152344 3.15625 -17.898438 3.15625 -17.398438 L 3.15625 -13.992188 C 3.15625 -13.464844 3.429688 -13.191406 3.953125 -13.191406 L 6.996094 -13.191406 L 6.996094 -6.628906 C 6.996094 -6.058594 7.382812 -5.691406 7.910156 -5.691406 L 12.023438 -5.691406 C 12.640625 -5.691406 12.984375 -6.105469 12.984375 -6.628906 L 12.984375 -13.191406 L 16.230469 -13.191406 C 16.664062 -13.191406 16.941406 -13.554688 16.941406 -13.992188 L 16.941406 -17.398438 C 16.941406 -17.921875 16.664062 -18.152344 16.230469 -18.152344 L 12.984375 -18.152344 L 12.984375 -22.5625 L 18.152344 -22.5625 C 18.675781 -22.5625 18.976562 -23.066406 18.976562 -23.5 L 18.976562 -27.363281 C 18.953125 -27.890625 18.609375 -28.164062 18.152344 -28.164062 L 1.761719 -28.164062 C 1.234375 -28.164062 0.9375 -27.890625 0.9375 -27.363281 Z M 0.9375 -23.5 "/></g></g></g><g fill="#001c30" fill-opacity="1"><g transform="translate(133.627237, 45.227486)"><g><path d="M 18.378906 -20.164062 L 9.554688 -20.164062 L 9.554688 -27.226562 C 9.554688 -27.753906 9.167969 -28.140625 8.617188 -28.140625 L 4.433594 -28.140625 C 3.910156 -28.140625 3.476562 -27.777344 3.476562 -27.226562 L 3.476562 -6.605469 C 3.476562 -6.011719 3.796875 -5.714844 4.433594 -5.714844 L 8.597656 -5.714844 C 9.234375 -5.714844 9.554688 -6.011719 9.554688 -6.605469 L 9.554688 -14.996094 L 18.378906 -14.996094 L 18.378906 -6.605469 C 18.378906 -6.011719 18.699219 -5.714844 19.339844 -5.714844 L 23.5 -5.714844 C 24.117188 -5.714844 24.4375 -6.011719 24.4375 -6.605469 L 24.4375 -27.226562 C 24.4375 -27.753906 24.027344 -28.140625 23.5 -28.140625 L 19.316406 -28.140625 C 18.792969 -28.140625 18.378906 -27.753906 18.378906 -27.226562 Z M 18.378906 -20.164062 "/></g></g></g><g fill="#001c30" fill-opacity="1"><g transform="translate(161.219532, 45.227486)"><g><path d="M 9.144531 -19.339844 L 9.144531 -22.859375 L 18.472656 -22.859375 C 18.90625 -22.859375 19.25 -23.179688 19.25 -23.707031 L 19.25 -27.339844 C 19.25 -27.800781 18.953125 -28.140625 18.472656 -28.140625 L 4.160156 -28.140625 C 3.636719 -28.140625 3.359375 -27.867188 3.359375 -27.339844 L 3.359375 -6.515625 C 3.359375 -5.988281 3.566406 -5.738281 4 -5.714844 L 18.976562 -5.714844 C 19.453125 -5.714844 19.773438 -6.058594 19.773438 -6.515625 L 19.773438 -10.242188 C 19.773438 -10.765625 19.410156 -11.109375 18.976562 -11.109375 L 9.144531 -11.109375 L 9.144531 -14.5625 L 17.328125 -14.5625 C 17.808594 -14.5625 18.105469 -14.90625 18.105469 -15.363281 L 18.105469 -18.496094 C 18.105469 -19.019531 17.761719 -19.339844 17.328125 -19.339844 Z M 9.144531 -19.339844 "/></g></g></g><g fill="#001c30" fill-opacity="1"><g transform="translate(182.410955, 45.227486)"><g><path d="M 13.097656 -28.804688 C 13.535156 -28.804688 13.832031 -29.078125 13.832031 -29.535156 L 13.832031 -33.765625 C 13.832031 -34.335938 13.535156 -34.613281 13.097656 -34.613281 C 6.308594 -34.496094 1.851562 -29.878906 1.851562 -24.09375 C 1.851562 -18.609375 6.171875 -15.019531 6.902344 -12.046875 C 6.972656 -11.703125 6.996094 -11.386719 6.996094 -11.085938 C 6.996094 -8.527344 5.074219 -6.082031 1.875 -5.714844 C 1.441406 -5.714844 1.144531 -5.417969 1.144531 -4.960938 L 1.144531 -0.777344 C 1.144531 -0.230469 1.394531 0.0234375 1.828125 0.046875 C 8.777344 -0.386719 13.054688 -4.59375 13.054688 -10.355469 C 13.054688 -16.070312 8.617188 -19.59375 7.976562 -22.519531 C 7.910156 -22.816406 7.886719 -23.136719 7.886719 -23.433594 C 7.886719 -26.128906 9.921875 -28.4375 13.097656 -28.804688 Z M 13.097656 -28.804688 "/></g></g></g></svg>